# xmcd
#
# Track frame offsets: 
#        150
#        20807
#        38682
#        60410
#        80480
#        100339
#        119927
#        136525
#        157720
#        169923
#        185027
#        206033
#
# Disc length: 3023 seconds
#
# Revision: 0
# Processed by: cddbd v1.5.2PL0 Copyright (c) Steve Scherf et al.
# Submitted via: ExactAudioCopy v0.99pb3
#
DISCID=a10bcd0c
DTITLE=Sahara Smith - Myth Of The Heart
DYEAR=2010
DGENRE=Country
TTITLE0=Thousand Secrets
TTITLE1=Are You Lonely
TTITLE2=Train Man
TTITLE3=Tin Man Town
TTITLE4=The Real Thing
TTITLE5=Angel
TTITLE6=All I Need
TTITLE7=World's On Fire
TTITLE8=Myth Of The Heart
TTITLE9=Midnight Plane
TTITLE10=Mermaid
TTITLE11=Twilight Red
EXTD=
EXTT0=
EXTT1=
EXTT2=
EXTT3=
EXTT4=
EXTT5=
EXTT6=
EXTT7=
EXTT8=
EXTT9=
EXTT10=
EXTT11=
PLAYORDER=
